<svg xmlns="http://www.w3.org/2000/svg" viewBox="0 0 224.41 224.02">
  <path fill="none" d="M-2.8,2.99 221.61,2.99 221.61,227.01 -2.8,227.01"/>
  <g>
    <path fill="none" stroke="#1a1a1a" stroke-width="23.5" stroke-linecap="round" stroke-linejoin="round" stroke-miterlimit="2.61313" d="M173.04,137.17c5.49,14.27 -0.08,30.92 -13.72,38.79l-56.66,32.71c-15.09,8.71 -34.55,3.5 -43.26,-11.59l-32.71,-56.66c-8.71,-15.09 -3.5,-34.55 11.59,-43.26l7.49,-4.32c0.58,1.52 1.29,3 2.13,4.46l32.71,56.66c8.71,15.09 28.17,20.3 43.26,11.59l49.16,-28.38z"/>
    <path fill="none" stroke="#1a1a1a" stroke-width="23.5" stroke-linecap="round" stroke-linejoin="round" stroke-miterlimit="2.61313" d="M159.41,32.92l32.71,56.66c8.71,15.09 3.5,34.55 -11.59,43.26l-56.66,32.7c-15.09,8.71 -34.55,3.5 -43.26,-11.59l-32.71,-56.66c-8.71,-15.08 -3.5,-34.54 11.59,-43.26l56.66,-32.71c15.08,-8.71 34.54,-3.5 43.25,11.59z"/>
  </g>
</svg>
